<?xml version="1.0" encoding="UTF-8" standalone="no"?>
<svg width="204px" height="41px" viewBox="0 0 204 41" version="1.1" xmlns="http://www.w3.org/2000/svg" xmlns:xlink="http://www.w3.org/1999/xlink">
    <!-- Generator: Sketch 39 (31667) - http://www.bohemiancoding.com/sketch -->
    <title>Combined Shape</title>
    <desc>Created with Sketch.</desc>
    <defs></defs>
    <g id="Page-1" stroke="none" stroke-width="1" fill="none" fill-rule="evenodd">
        <g id="Clock-in-Photo" transform="translate(-412.000000, -30.000000)" fill="#FFFFFF">
            <path d="M435.691238,32.4704451 C430.371349,32.4704451 425.973574,36.7760779 425.973574,42.1404729 C425.973574,47.4342837 430.300417,51.8105007 435.691238,51.8105007 C441.011127,51.8105007 445.337969,47.5048679 445.337969,42.1404729 C445.337969,36.7760779 441.011127,32.4704451 435.691238,32.4704451 M601.565369,42.5639777 L592.308762,42.5639777 L592.308762,35.9996523 L589.897079,35.9996523 L589.897079,54.4926982 C589.897079,55.7632128 589.968011,56.8925591 590.180807,57.810153 C590.32267,58.7277469 590.67733,59.5041725 591.173853,60.1394298 C591.599444,60.7746871 592.308762,61.2687761 593.089013,61.5511127 C593.869263,61.9040334 594.862309,62.0452017 596.06815,62.0452017 C597.061196,62.0452017 598.054242,61.9040334 598.905424,61.6216968 L598.763561,59.5747566 C598.125174,59.786509 597.273992,59.9276773 596.280946,59.9276773 C595.713491,59.9276773 595.146036,59.8570932 594.649513,59.7159249 C594.15299,59.6453408 593.727399,59.3630042 593.37274,59.0100834 C593.018081,58.6571627 592.805285,58.1630737 592.59249,57.4572323 C592.379694,56.7513908 592.308762,55.8337969 592.308762,54.7750348 L592.308762,44.6109179 L600.231708,44.6109179 C600.842774,46.3479728 602.469629,50.7984738 603.090403,52.445758 C603.72879,54.1397775 604.438108,55.7632128 605.218359,57.3866481 C605.998609,59.0100834 606.77886,60.6335188 607.55911,62.1157858 C607.204451,62.9627955 606.849791,63.668637 606.495132,64.2333102 C606.140473,64.7979833 605.714882,65.2920723 605.289291,65.644993 C604.8637,65.9979138 604.367177,66.2802503 603.799722,66.4214186 C603.232267,66.5625869 602.59388,66.6331711 601.884562,66.6331711 L601.884562,68.6801113 C602.94854,68.6801113 603.941586,68.538943 604.721836,68.3271905 C605.502086,68.1154381 606.211405,67.6919332 606.849791,67.1978442 C607.417246,66.7037552 607.984701,65.9979138 608.481224,65.2214882 C608.977747,64.3744784 609.47427,63.4568846 609.970793,62.3275382 C611.176634,59.5041725 612.311544,56.3984701 613.30459,53.0104312 C614.297636,49.6223922 615.21975,46.1637691 616,42.5639777 L613.588317,42.5639777 C613.233658,44.1874131 612.878999,45.7402643 612.524339,47.1519471 C612.16968,48.56363 611.815021,49.9753129 611.460362,51.3164117 C611.105702,52.6575104 610.680111,53.9986092 610.25452,55.3397079 C609.828929,56.6808067 609.332406,58.0924896 608.764951,59.6453408 C607.984701,58.1630737 607.275382,56.6808067 606.636996,55.1279555 C605.998609,53.5751043 605.360223,52.0928373 604.8637,50.6105702 C604.367177,49.1988873 603.870654,47.7166203 603.445063,46.3755216 C603.019471,45.0344228 602.664812,43.7639082 602.381085,42.5639777 L601.565369,42.5639777 Z M435.691238,54.1397775 C429.023644,54.1397775 423.561892,48.7047983 423.561892,42.0698887 C423.561892,35.4349791 429.023644,30 435.691238,30 C442.358832,30 447.820584,35.4349791 447.820584,42.0698887 C447.749652,48.7753825 442.358832,54.1397775 435.691238,54.1397775 Z M458.815021,69.3153686 C452.573018,63.0333797 444.273992,59.5041725 435.40751,59.5041725 C426.541029,59.5041725 418.242003,62.9627955 412,69.3153686 L413.702364,71.009388 C419.518776,65.150904 427.179416,61.9746175 435.40751,61.9746175 C443.635605,61.9746175 451.296245,65.2214882 457.112656,71.009388 L458.815021,69.3153686 Z M490.521558,35.9996523 L493.075104,35.9996523 L493.075104,61.6922809 L490.521558,61.6922809 L490.521558,49.3400556 L478.179416,49.3400556 L478.179416,61.6922809 L475.625869,61.6922809 L475.625869,35.9996523 L478.179416,35.9996523 L478.179416,47.1519471 L490.521558,47.1519471 L490.521558,35.9996523 Z M512.794159,61.6216968 C512.08484,61.8334492 507.190542,62.0452017 505.417246,62.0452017 C503.998609,62.0452017 502.792768,61.8334492 501.799722,61.4099444 C500.806676,60.9864395 500.026426,60.4217663 499.458971,59.6453408 C498.891516,58.8689152 498.465925,57.9513213 498.182197,56.8925591 C497.89847,55.8337969 497.756606,54.6338665 497.756606,53.2927677 L497.756606,42.5639777 L500.168289,42.5639777 L500.168289,52.5163421 C500.168289,53.8574409 500.239221,55.0573713 500.452017,55.9749652 C500.664812,56.8925591 500.94854,57.6689847 501.445063,58.2336579 C501.870654,58.798331 502.438108,59.2218359 503.147427,59.5041725 C503.856745,59.786509 504.707928,59.9276773 505.771905,59.9276773 C506.906815,59.9276773 510.311544,59.786509 510.311544,59.786509 L510.311544,42.5639777 L512.723227,42.5639777 L512.723227,61.6216968 L512.794159,61.6216968 Z M564.361613,42.4933936 C565.070932,42.2816412 569.965229,42.0698887 571.738526,42.0698887 C573.157163,42.0698887 574.363004,42.2816412 575.35605,42.705146 C576.349096,43.1286509 577.129346,43.6933241 577.696801,44.4697497 C578.264256,45.2461752 578.689847,46.1637691 578.973574,47.2225313 C579.257302,48.2812935 579.399166,49.4812239 579.399166,50.8223227 L579.399166,61.5511127 L576.987483,61.5511127 L576.987483,51.5987483 C576.987483,50.2576495 576.916551,49.0577191 576.703755,48.1401252 C576.49096,47.2225313 576.207232,46.4461057 575.710709,45.8814325 C575.285118,45.3167594 574.717663,44.8932545 574.008345,44.6109179 C573.299026,44.3285814 572.447844,44.1874131 571.383866,44.1874131 C570.248957,44.1874131 566.844228,44.3285814 566.844228,44.3285814 L566.844228,61.5511127 L564.432545,61.5511127 L564.432545,42.4933936 L564.361613,42.4933936 Z M517.333797,43.199235 C518.043115,42.9874826 518.965229,42.7757302 520.171071,42.5639777 C521.305981,42.3522253 522.795549,42.211057 524.639777,42.211057 C527.05146,42.211057 528.824757,42.9168985 529.959666,44.3285814 C530.10153,44.2579972 530.314325,44.0462448 530.668985,43.8344924 C531.023644,43.6227399 531.520167,43.3404033 532.01669,43.1286509 C532.584145,42.8463143 533.222531,42.705146 533.93185,42.4933936 C534.641168,42.3522253 535.49235,42.211057 536.343533,42.211057 C537.833102,42.211057 538.968011,42.4228095 539.890125,42.8463143 C540.812239,43.2698192 541.521558,43.9050765 542.018081,44.6815021 C542.514604,45.4579277 542.869263,46.3755216 543.011127,47.5048679 C543.15299,48.56363 543.294854,49.7635605 543.294854,51.0340751 L543.294854,61.7628651 L540.883171,61.7628651 L540.883171,51.8105007 C540.883171,50.5399861 540.812239,49.4812239 540.741307,48.56363 C540.599444,47.6460362 540.386648,46.8696106 540.102921,46.2343533 C539.748261,45.599096 539.32267,45.1755911 538.684284,44.8932545 C538.045897,44.6109179 537.265647,44.3991655 536.272601,44.3991655 C535.563282,44.3991655 534.853964,44.4697497 534.215577,44.6109179 C533.577191,44.7520862 533.080668,44.8932545 532.655076,45.105007 C532.229485,45.3167594 531.803894,45.5285118 531.520167,45.6696801 C531.236439,45.8814325 531.023644,46.0226008 530.88178,46.093185 C531.094576,46.7284423 531.307371,47.4342837 531.378303,48.2812935 C531.520167,49.0577191 531.520167,49.9047288 531.520167,50.8223227 L531.520167,61.6922809 L529.108484,61.6922809 L529.108484,51.7399166 C529.108484,50.4694019 529.037552,49.4106398 528.96662,48.4930459 C528.824757,47.575452 528.611961,46.7990264 528.257302,46.1637691 C527.902643,45.5285118 527.40612,45.105007 526.767733,44.8226704 C526.129346,44.5403338 525.278164,44.3285814 524.285118,44.3285814 C523.150209,44.3285814 522.157163,44.3991655 521.305981,44.5403338 C520.52573,44.6815021 519.958275,44.7520862 519.74548,44.8932545 L519.74548,61.6922809 L517.333797,61.6922809 L517.333797,43.199235 Z M553.721836,42.0698887 C554.998609,42.0698887 556.062587,42.2816412 556.913769,42.6345619 C557.764951,42.9874826 558.545202,43.4815716 559.041725,44.1168289 C559.609179,44.7520862 559.963839,45.5285118 560.247566,46.3755216 C560.460362,47.2225313 560.602225,48.2107093 560.602225,49.1988873 L560.602225,61.8334492 C560.38943,61.9040334 551.806676,62.1157858 550.671766,61.8334492 C549.820584,61.6216968 549.040334,61.2687761 548.472879,60.7746871 C547.834492,60.2805981 547.337969,59.6453408 546.98331,58.9394993 C546.628651,58.1630737 546.415855,57.2454798 546.415855,56.1867177 C546.415855,55.1279555 546.628651,54.2809458 546.98331,53.5045202 C547.408901,52.7986787 547.905424,52.1634214 548.685675,51.6693324 C549.394993,51.1752434 550.246175,50.8223227 551.239221,50.6105702 C552.232267,50.3988178 553.296245,50.2576495 554.502086,50.2576495 C554.856745,50.2576495 555.211405,50.2576495 555.566064,50.3282337 C555.920723,50.3988178 556.346314,50.3988178 556.700974,50.4694019 C557.055633,50.5399861 557.33936,50.6105702 557.623088,50.6811544 C557.906815,50.7517385 558.048679,50.8223227 558.190542,50.8223227 L558.190542,49.6223922 C558.190542,48.9871349 558.119611,48.2812935 558.048679,47.6460362 C557.977747,47.0107789 557.764951,46.4461057 557.410292,45.9520167 C557.055633,45.4579277 556.630042,45.0344228 555.991655,44.7520862 C555.353268,44.4697497 554.573018,44.2579972 553.579972,44.2579972 C552.161335,44.2579972 551.097357,44.3285814 550.388039,44.5403338 L549.891516,42.4228095 C551.239221,42.1404729 552.515994,42.0698887 553.721836,42.0698887 Z M553.934631,59.9276773 L558.190542,59.9276773 L558.190542,52.8692629 C557.906815,52.7280946 557.481224,52.5869263 556.913769,52.445758 C556.346314,52.3045897 555.495132,52.2340056 554.431154,52.2340056 C553.8637,52.2340056 553.225313,52.3045897 552.586926,52.3751739 C551.94854,52.445758 551.381085,52.6575104 550.81363,52.939847 C550.246175,53.2221836 549.820584,53.6456885 549.465925,54.1397775 C549.111266,54.6338665 548.969402,55.2691238 548.969402,56.1161335 C548.969402,56.821975 549.111266,57.4572323 549.324061,57.9513213 C549.536857,58.4454103 549.891516,58.8689152 550.317107,59.1512517 C550.742698,59.4335883 551.239221,59.6453408 551.877608,59.786509 C552.515994,59.8570932 553.438108,59.9276773 553.934631,59.9276773 Z M583.442281,42.4933936 L585.853964,42.4933936 L585.853964,61.6922809 L583.442281,61.6922809 L583.442281,42.4933936 Z M586.421419,37.8348401 C586.421419,38.3995132 586.279555,38.8230181 585.924896,39.1759388 C585.570236,39.5288595 585.144645,39.6700278 584.648122,39.6700278 C584.151599,39.6700278 583.726008,39.5288595 583.371349,39.1759388 C583.01669,38.8230181 582.874826,38.3995132 582.874826,37.8348401 C582.874826,37.2701669 583.01669,36.846662 583.371349,36.4937413 C583.726008,36.1408206 584.151599,35.9996523 584.648122,35.9996523 C585.144645,35.9996523 585.570236,36.1408206 585.924896,36.4937413 C586.279555,36.7760779 586.421419,37.2701669 586.421419,37.8348401 Z" id="Combined-Shape"></path>
        </g>
    </g>
</svg>